<?xml version="1.0" encoding="UTF-8"?>
<!DOCTYPE svg PUBLIC "-//W3C//DTD SVG 1.1//EN" "http://www.w3.org/Graphics/SVG/1.1/DTD/svg11.dtd">
<svg xmlns="http://www.w3.org/2000/svg" version="1.1" width="512px" height="512px" style="shape-rendering:geometricPrecision; text-rendering:geometricPrecision; image-rendering:optimizeQuality; fill-rule:evenodd; clip-rule:evenodd" xmlns:xlink="http://www.w3.org/1999/xlink">
<g><path style="opacity:1" fill="#f96600" d="M 36.5,-0.5 C 182.5,-0.5 328.5,-0.5 474.5,-0.5C 487.373,3.02548 497.54,10.3588 505,21.5C 507.486,26.4887 509.652,31.4887 511.5,36.5C 511.5,182.5 511.5,328.5 511.5,474.5C 507.975,487.373 500.641,497.54 489.5,505C 484.511,507.486 479.511,509.652 474.5,511.5C 328.5,511.5 182.5,511.5 36.5,511.5C 23.6148,507.971 13.4482,500.637 6,489.5C 3.51439,484.511 1.34772,479.511 -0.5,474.5C -0.5,328.5 -0.5,182.5 -0.5,36.5C 3.02548,23.6266 10.3588,13.4599 21.5,6C 26.4774,3.51712 31.4774,1.35046 36.5,-0.5 Z"/></g>
<g><path style="opacity:1" fill="#fffefd" d="M 244.5,95.5 C 279.968,93.1499 307.134,106.817 326,136.5C 343.859,174.477 338.026,208.31 308.5,238C 273.733,263.622 238.733,263.955 203.5,239C 178.853,216.263 170.02,188.43 177,155.5C 187.81,122.182 210.31,102.182 244.5,95.5 Z"/></g>
<g><path style="opacity:1" fill="#f96703" d="M 249.5,136.5 C 271.764,135.701 286.597,145.701 294,166.5C 297.576,193.225 286.409,209.725 260.5,216C 236.327,216.489 221.493,204.989 216,181.5C 215.557,157.786 226.723,142.786 249.5,136.5 Z"/></g>
<g><path style="opacity:1" fill="#fffdfc" d="M 174.5,256.5 C 178.582,256.344 182.582,256.844 186.5,258C 222.425,283.158 260.759,287.491 301.5,271C 310.187,266.3 318.853,261.633 327.5,257C 341.483,256.306 349.483,262.972 351.5,277C 351.435,279.591 350.935,282.091 350,284.5C 334.343,302.754 314.51,313.92 290.5,318C 284.15,318.892 277.816,319.892 271.5,321C 291.667,341.167 311.833,361.333 332,381.5C 339.692,394.042 337.525,404.542 325.5,413C 318.637,416.543 311.971,416.21 305.5,412C 289.289,395.288 272.623,379.122 255.5,363.5C 238.705,380.127 221.705,396.627 204.5,413C 190.292,418.147 180.458,413.647 175,399.5C 173.932,394.232 174.599,389.232 177,384.5C 197.39,363.109 218.223,341.942 239.5,321C 214.263,319.37 191.597,311.037 171.5,296C 154.647,281.215 155.647,268.049 174.5,256.5 Z"/></g>
</svg>
