<?xml version="1.0" encoding="UTF-8"?>
<!DOCTYPE svg PUBLIC "-//W3C//DTD SVG 1.1//EN" "http://www.w3.org/Graphics/SVG/1.1/DTD/svg11.dtd">
<svg xmlns="http://www.w3.org/2000/svg" version="1.1" width="512px" height="512px" style="shape-rendering:geometricPrecision; text-rendering:geometricPrecision; image-rendering:optimizeQuality; fill-rule:evenodd; clip-rule:evenodd" xmlns:xlink="http://www.w3.org/1999/xlink">
<g><path style="opacity:1" fill="#4169e1" d="M 57.5,-0.5 C 189.5,-0.5 321.5,-0.5 453.5,-0.5C 485.167,6.5 504.5,25.8333 511.5,57.5C 511.5,189.5 511.5,321.5 511.5,453.5C 504.5,485.167 485.167,504.5 453.5,511.5C 321.5,511.5 189.5,511.5 57.5,511.5C 25.8333,504.5 6.5,485.167 -0.5,453.5C -0.5,321.5 -0.5,189.5 -0.5,57.5C 6.5,25.8333 25.8333,6.5 57.5,-0.5 Z"/></g>
<g><path style="opacity:1" fill="#fefefe" d="M 215.5,163.5 C 232.17,163.333 248.837,163.5 265.5,164C 273.522,164.085 279.355,167.585 283,174.5C 283.333,196.833 283.667,219.167 284,241.5C 285.548,252.547 290.215,254.214 298,246.5C 315.743,225.699 329.409,202.366 339,176.5C 340.5,175 342,173.5 343.5,172C 366.23,171.032 388.897,171.365 411.5,173C 415.212,175.602 416.378,179.102 415,183.5C 412.883,189.736 410.216,195.736 407,201.5C 394.387,219.779 381.387,237.779 368,255.5C 365.789,259.084 364.289,262.917 363.5,267C 363.7,270.233 364.867,273.067 367,275.5C 378.473,286.061 389.473,297.061 400,308.5C 404.721,314.221 409.054,320.221 413,326.5C 417.897,337.16 414.73,343.993 403.5,347C 384.789,347.934 366.123,347.6 347.5,346C 343.221,344.527 339.221,342.527 335.5,340C 325.47,330.304 315.803,320.304 306.5,310C 302.6,306.044 297.933,304.377 292.5,305C 290.622,306.543 289.122,308.376 288,310.5C 285.537,319.353 283.87,328.353 283,337.5C 281.412,342.052 278.245,344.885 273.5,346C 228.262,350.152 191.429,334.652 163,299.5C 135.835,263.533 113.502,224.533 96,182.5C 94.703,177.883 95.8697,174.05 99.5,171C 117.167,170.333 134.833,170.333 152.5,171C 157.239,172.119 161.072,174.619 164,178.5C 173.634,204.62 187.467,228.12 205.5,249C 208.939,251.997 212.439,252.163 216,249.5C 217.964,244.683 219.298,239.683 220,234.5C 220.803,219.805 220.47,205.139 219,190.5C 216.327,182.668 210.827,178.334 202.5,177.5C 201.058,174.213 201.725,171.38 204.5,169C 207.99,166.588 211.657,164.755 215.5,163.5 Z"/></g>
</svg>
